<svg width="237" height="237" viewBox="0 0 237 237" fill="none" xmlns="http://www.w3.org/2000/svg">
<path fill-rule="evenodd" clip-rule="evenodd" d="M106.127 1.00088L114.014 0.485779L114.467 7.41579C111.815 7.5084 109.184 7.69451 106.582 7.97058L106.127 1.00088ZM113.566 14.5884C112.78 14.6245 111.997 14.6686 111.217 14.7224C111.997 14.6686 112.781 14.6245 113.566 14.5884ZM115.079 16.7899L116.925 45.0391C114.261 45.0921 111.63 45.2852 109.042 45.6151L107.195 17.3464C109.795 17.0624 112.423 16.8745 115.079 16.7899ZM117.372 51.8536L117.921 60.2522L110.033 60.7682L109.488 52.4357C112.072 52.0909 114.703 51.8933 117.372 51.8536ZM19.3239 181.498L23.7225 188.066L28.8603 184.625C27.2973 182.508 25.8076 180.332 24.3946 178.102L19.3239 181.499V181.498ZM31.5874 176.103C31.4745 175.935 31.3608 175.766 31.2514 175.594L31.5874 176.103ZM36.6652 179.398L60.2133 163.626C58.6028 161.546 57.1016 159.375 55.7159 157.124L32.1899 172.881C33.5984 175.112 35.0917 177.286 36.6652 179.398ZM65.8944 159.821L73.4859 154.737L69.0873 148.168L61.382 153.329C62.758 155.584 64.2662 157.751 65.8944 159.821ZM49.3107 213.046L43.1692 208.069L46.7237 203.683C48.7365 205.38 50.811 207.008 52.9446 208.562L49.3116 213.046H49.3107ZM50.0437 203.492C49.7279 203.239 49.4157 202.98 49.1026 202.724C49.4148 202.98 49.7279 203.239 50.0437 203.492ZM52.6333 196.39L70.45 174.405C72.446 176.121 74.5355 177.733 76.7123 179.232L58.8585 201.263C56.7197 199.719 54.6443 198.092 52.6333 196.39ZM74.7472 169.103L80.8781 161.537L87.0187 166.513L81.0175 173.919C78.8327 172.437 76.7388 170.828 74.7463 169.103H74.7472ZM114.991 236.725L107.105 236.188L107.571 229.339C110.176 229.592 112.807 229.755 115.46 229.824L114.991 236.725ZM108.208 219.971L110.129 191.725C112.723 192.017 115.355 192.172 118.021 192.186L116.098 220.449C113.441 220.389 110.809 220.229 108.208 219.971ZM110.592 184.912L111.169 176.432L119.055 176.969L118.485 185.365H118.417C115.769 185.365 113.157 185.211 110.592 184.912H110.592ZM72.5642 227.935L79.9414 230.776L82.5681 223.953C80.3048 223.182 78.0733 222.341 75.878 221.431L75.1803 221.139L72.5633 227.935H72.5642ZM85.9409 215.194L96.1256 188.744C94.141 188.113 92.1935 187.4 90.2848 186.61C89.7636 186.394 89.2467 186.173 88.7325 185.946L78.5522 212.385L79.4528 212.764C81.5802 213.645 83.7429 214.455 85.9409 215.194ZM98.5793 182.373L101.464 174.882L94.0863 172.041L91.1827 179.582C91.7446 179.833 92.3099 180.078 92.8788 180.313C94.7373 181.082 96.6389 181.771 98.5785 182.373H98.5793ZM140.321 234.344L148.058 232.725L146.7 226.229C144.162 226.894 141.589 227.473 138.986 227.961L140.322 234.344H140.321ZM144.777 217.036L138.97 189.273C136.456 190.003 133.886 190.605 131.269 191.066L137.064 218.775C139.672 218.293 142.244 217.714 144.777 217.037V217.036ZM137.57 182.582L135.796 174.1L128.059 175.719L129.872 184.386C132.496 183.934 135.064 183.33 137.571 182.581L137.57 182.582ZM173.613 223.702L180.52 219.858L176.86 213.285C174.622 214.668 172.333 215.974 169.993 217.2L173.613 223.702V223.702ZM172.292 205.083L158.502 180.315C156.299 181.748 154.012 183.067 151.653 184.263L165.43 209.007C167.772 207.786 170.061 206.477 172.292 205.083ZM155.178 174.343L151.383 167.528L144.477 171.373L148.337 178.306C150.7 177.118 152.984 175.795 155.178 174.343ZM207.514 196.403L202.05 202.116L197.038 197.322L197.087 197.274C198.934 195.427 200.715 193.514 202.43 191.541L207.514 196.402V196.403ZM196.342 194.81C196.059 195.1 195.772 195.389 195.486 195.675L196.342 194.81ZM190.252 190.832L169.801 171.273L170.447 170.635C172.097 168.985 173.667 167.256 175.155 165.456L195.638 185.046C193.978 186.974 192.246 188.839 190.449 190.637L190.252 190.833V190.832ZM172.118 166.222C171.766 166.618 171.411 167.009 171.053 167.397C171.412 167.009 171.767 166.618 172.118 166.222ZM164.866 166.553L158.766 160.718L164.23 155.006L170.212 160.727C168.769 162.498 167.236 164.195 165.621 165.81C165.372 166.059 165.12 166.308 164.866 166.553ZM236.498 132.886L235.316 140.702L227.7 139.551C228.191 136.976 228.593 134.371 228.903 131.738L236.497 132.886H236.498ZM218.416 138.148L190.399 133.914C190.942 131.356 191.35 128.751 191.619 126.104L219.617 130.335C219.315 132.971 218.913 135.576 218.416 138.148ZM183.646 132.893L176.095 131.751L177.277 123.935L184.865 125.082C184.61 127.735 184.201 130.341 183.646 132.893ZM224.261 174.451L227.696 167.331L220.15 163.689C219.078 166.105 217.922 168.475 216.688 170.795L224.26 174.451H224.261ZM211.703 159.612L186.187 147.297C185.153 149.735 183.994 152.105 182.715 154.398L208.239 166.717C209.483 164.401 210.639 162.031 211.703 159.612ZM181.562 152.75C181.954 152.028 182.333 151.298 182.7 150.561C182.333 151.298 181.954 152.029 181.562 152.75ZM182.755 150.45C183.003 149.948 183.247 149.442 183.484 148.934C183.246 149.443 183.003 149.949 182.755 150.45ZM180.045 144.332L173.756 141.297L170.321 148.416L176.567 151.431C177.862 149.145 179.026 146.774 180.046 144.332H180.045ZM236.205 107.446L235.226 99.6016L228.202 100.477C228.626 103.063 228.961 105.677 229.204 108.319L236.205 107.445V107.446ZM218.882 101.641L190.77 105.147C191.245 107.715 191.586 110.33 191.787 112.986L219.883 109.483C219.648 106.839 219.314 104.223 218.882 101.641ZM183.989 105.994L175.793 107.016L176.771 114.86L185.008 113.832C184.82 111.173 184.478 108.557 183.989 105.994ZM222.852 66.6089L226.102 73.815L221.221 76.0165C220.209 73.5742 219.112 71.1768 217.936 68.8272L222.853 66.6089H222.852ZM212.672 79.8727L186.852 91.5179C185.876 89.0562 184.773 86.6607 183.548 84.3366L209.382 72.6842C210.531 74.9563 211.598 77.276 212.577 79.6398L212.672 79.8727ZM180.632 94.3228L171.505 98.4391L168.254 91.2339L177.321 87.1449C178.35 89.065 179.287 91.0408 180.125 93.0668C180.298 93.4831 180.467 93.902 180.631 94.3228H180.632ZM174.06 16.0869L180.864 20.1107L178.136 24.7245C175.917 23.3115 173.644 21.9744 171.322 20.7166L174.06 16.0869ZM173.359 32.802L158.944 57.1845C156.75 55.7354 154.474 54.4009 152.123 53.1881L166.547 28.7933C168.873 30.0431 171.146 31.3802 173.359 32.802ZM155.469 63.0596L150.38 71.6673L143.576 67.6435L148.651 59.0615C151.007 60.2601 153.284 61.5964 155.469 63.0596ZM208.302 43.7337L202.988 37.8816L198.798 41.6857C200.62 43.5891 202.375 45.5569 204.059 47.5864L208.301 43.7337H208.302ZM191.847 47.9974L170.892 67.0234C172.739 68.903 174.487 70.8814 176.125 72.9497L197.104 53.9016C195.428 51.8668 193.675 49.8964 191.847 47.9974ZM165.836 71.6143L158.646 78.143L163.96 83.9952L171.063 77.5459C169.438 75.467 167.692 73.4869 165.836 71.6143ZM4.37632 87.3927L6.85214 79.8859L13.3244 82.0221C12.46 84.5015 11.6812 87.0214 10.9923 89.5757L4.37632 87.3927ZM22.2301 84.9593L49.1184 93.8306C48.2355 96.2994 47.4796 98.829 46.8605 101.41L19.9139 92.519C20.5904 89.9576 21.364 87.436 22.2292 84.9593H22.2301ZM55.588 95.966L63.7308 98.6526L61.255 106.159L53.36 103.554C53.9554 100.962 54.7016 98.4303 55.5889 95.966H55.588ZM24.4272 48.217L19.8451 54.6575L24.93 58.2747C26.3624 56.0582 27.8715 53.8964 29.4538 51.7919L24.4281 48.2162L24.4272 48.217ZM32.5806 63.7176L55.6789 80.1496C57.061 77.8969 58.5613 75.7254 60.1701 73.643L37.1027 57.233C35.5142 59.3331 34.0051 61.4958 32.5806 63.7176ZM59.7697 83.0594H59.7706L59.7767 83.0479L59.7697 83.0594ZM61.2462 84.1081L68.6498 89.3755L73.2319 82.935L65.7312 77.5997C64.1118 79.676 62.6133 81.8493 61.2453 84.109L61.2462 84.1081ZM0.378122 114.207L0.33667 122.112L7.21729 122.148C7.18025 120.97 7.16173 119.79 7.16173 118.605C7.16173 117.144 7.19084 115.691 7.2464 114.242L0.377239 114.206L0.378122 114.207ZM16.6125 122.196L44.9306 122.344C44.868 121.105 44.8371 119.859 44.8371 118.606C44.8371 117.208 44.8768 115.818 44.9535 114.439L16.6399 114.292C16.5799 115.722 16.5508 117.16 16.5508 118.606C16.5508 119.808 16.572 121.005 16.6134 122.196H16.6125ZM51.7645 122.38L60.231 122.424L60.2724 114.519L51.7856 114.475C51.7027 115.84 51.6604 117.218 51.6604 118.606C51.6604 119.872 51.6957 121.131 51.7645 122.38ZM149.963 4.91792L142.275 3.08244L140.721 9.5882C143.316 10.1174 145.879 10.7366 148.405 11.4422L149.963 4.91792ZM138.542 18.7188L131.964 46.2704C134.574 46.7573 137.137 47.3827 139.644 48.1368L146.226 20.5711C143.703 19.8567 141.141 19.2384 138.542 18.7188ZM130.378 52.9111L128.366 61.3388L136.055 63.1734L138.059 54.7748C135.56 54.0075 132.996 53.383 130.378 52.9111ZM79.7677 7.33906L72.4231 10.2621L74.8001 16.2333L75.8797 15.7791C77.9481 14.9218 80.0481 14.1262 82.1756 13.3923L79.7668 7.33906H79.7677ZM78.2665 24.9459L88.7378 51.2556C91.1377 50.1963 93.6048 49.264 96.1317 48.4614L85.6472 22.1155C83.5506 22.8273 81.4849 23.6043 79.4537 24.4458C79.0559 24.6098 78.6598 24.7774 78.2656 24.9468L78.2665 24.9459ZM91.2595 57.5938L94.5697 65.9112L101.913 62.9882L98.6596 54.8119C96.6918 55.4196 94.7637 56.1164 92.8797 56.8961C92.3355 57.1219 91.7957 57.3539 91.2586 57.5938H91.2595ZM41.8665 29.7061L48.0203 24.7448L51.8298 29.4706C49.7173 31.0503 47.6622 32.7041 45.6706 34.4258L41.8665 29.7061ZM57.7216 36.7808L75.4952 58.833C73.3519 60.3739 71.295 62.0286 69.3343 63.7855L51.5651 41.7395C53.5523 40.0099 55.6057 38.3543 57.7216 36.7808ZM79.7818 64.1525L85.6048 71.378L79.451 76.3393L73.6218 69.1068C75.5754 67.3374 77.6314 65.6836 79.7818 64.1525ZM6.91741 157.727L4.62328 150.163L11.1423 148.186C11.8452 150.737 12.6373 153.252 13.5131 155.727L6.91653 157.727H6.91741ZM20.1212 145.463L47.223 137.245C47.8933 139.812 48.7003 142.325 49.6335 144.775L22.4956 153.003C21.6109 150.534 20.818 148.018 20.1221 145.463H20.1212ZM54.3506 143.088L54.4388 143.317H54.4379L54.3506 143.088ZM53.7508 135.265L61.9403 132.782L64.2344 140.346L56.1702 142.792C55.2211 140.35 54.4114 137.838 53.7508 135.265Z" fill="white"/>
<path d="M118.417 9.60934C148.515 9.60934 175.764 21.8094 195.488 41.534C215.212 61.2585 227.412 88.5076 227.412 118.605C227.412 148.703 215.212 175.952 195.488 195.675C175.764 215.4 148.514 227.6 118.417 227.6C88.3189 227.6 61.0707 215.4 41.3461 195.675C21.6216 175.952 9.42151 148.702 9.42151 118.605C9.42151 88.5067 21.6216 61.2585 41.3461 41.534C61.0707 21.8094 88.3197 9.60934 118.417 9.60934ZM192.049 44.9738C173.206 26.1304 147.171 14.4754 118.417 14.4754C89.6613 14.4754 63.6285 26.1304 44.7851 44.9738C25.9417 63.8164 14.2867 89.8509 14.2867 118.606C14.2867 147.36 25.9417 173.394 44.7851 192.237C63.6277 211.081 89.6613 222.736 118.417 222.736C147.171 222.736 173.205 211.081 192.049 192.237C210.892 173.395 222.547 147.36 222.547 118.606C222.547 89.8509 210.892 63.8173 192.049 44.9738Z" fill="white"/>
<path d="M118.417 46.8323C138.236 46.8323 156.179 54.8648 169.167 67.8543C182.156 80.842 190.189 98.7849 190.189 118.605C190.189 138.424 182.157 156.367 169.167 169.355C156.18 182.344 138.237 190.377 118.417 190.377C98.5979 190.377 80.655 182.345 67.6664 169.355C54.6778 156.367 46.6444 138.425 46.6444 118.605C46.6444 98.7858 54.677 80.8429 67.6664 67.8543C80.6541 54.8657 98.597 46.8323 118.417 46.8323ZM166.902 70.1193C154.494 57.7111 137.352 50.0358 118.417 50.0358C99.4817 50.0358 82.3397 57.7111 69.9314 70.1193C57.5232 82.5275 49.8479 99.6695 49.8479 118.605C49.8479 137.54 57.5232 154.683 69.9314 167.09C82.3397 179.498 99.4817 187.174 118.417 187.174C137.352 187.174 154.494 179.498 166.902 167.09C179.31 154.683 186.986 137.54 186.986 118.605C186.986 99.6695 179.31 82.5275 166.902 70.1193Z" fill="white"/>
<path fill-rule="evenodd" clip-rule="evenodd" d="M140.024 115.307L137.143 118.244C135.785 111.071 133.107 104.402 129.722 98.6367C127.988 95.6837 126.338 93.3323 124.242 90.6077C121.843 87.4898 120.475 84.6461 117.914 82.412C119.75 95.0504 121.995 96.0947 113.407 105.038C108.272 110.383 101.583 115.605 98.3517 119.835C93.7009 125.924 92.7227 135.958 97.034 143.377C110.834 167.129 153.278 151.938 140.024 115.308V115.307Z" fill="white"/>
</svg>
