<svg width="176" height="55" viewBox="0 0 176 55" fill="none" xmlns="http://www.w3.org/2000/svg">
<path d="M79.1669 22.5484C79.0111 22.007 78.7923 21.5286 78.5105 21.1133C78.2287 20.6905 77.8838 20.3345 77.4759 20.0452C77.0753 19.7485 76.6155 19.5223 76.0963 19.3666C75.5845 19.2108 75.0172 19.1329 74.3941 19.1329C73.2297 19.1329 72.2062 19.4222 71.3236 20.0007C70.4484 20.5792 69.766 21.4211 69.2765 22.5262C68.787 23.6239 68.5422 24.9663 68.5422 26.5535C68.5422 28.1407 68.7833 29.4906 69.2654 30.6032C69.7475 31.7157 70.4298 32.5649 71.3124 33.1509C72.195 33.7294 73.2371 34.0186 74.4386 34.0186C75.5289 34.0186 76.4597 33.8258 77.2311 33.4401C78.0099 33.047 78.6032 32.4945 79.0111 31.7824C79.4265 31.0704 79.6342 30.2286 79.6342 29.257L80.6132 29.4016H74.739V25.7748H84.2734V28.6451C84.2734 30.6477 83.8507 32.3684 83.0051 33.8072C82.1596 35.2387 80.9952 36.3438 79.5118 37.1226C78.0284 37.8939 76.3299 38.2796 74.4164 38.2796C72.2803 38.2796 70.4039 37.8087 68.787 36.8667C67.1701 35.9174 65.9092 34.5712 65.0044 32.8282C64.1069 31.0778 63.6582 29.0011 63.6582 26.598C63.6582 24.7512 63.9252 23.1047 64.4592 21.6584C65.0007 20.2047 65.7572 18.9735 66.7288 17.9648C67.7004 16.9561 68.8315 16.1884 70.122 15.6618C71.4126 15.1352 72.8106 14.8719 74.3163 14.8719C75.6068 14.8719 76.8083 15.0611 77.9209 15.4393C79.0334 15.8102 80.0198 16.3368 80.8802 17.0191C81.748 17.7015 82.4563 18.5136 83.0051 19.4556C83.554 20.3901 83.9063 21.4211 84.062 22.5484H79.1669Z" fill="black"/>
<path d="M92.6758 38.2908C91.5855 38.2908 90.6139 38.1016 89.761 37.7234C88.908 37.3377 88.2331 36.7703 87.7362 36.0212C87.2467 35.2647 87.0019 34.3227 87.0019 33.1954C87.0019 32.246 87.1762 31.4487 87.5248 30.8034C87.8734 30.1581 88.3481 29.639 88.9488 29.2459C89.5496 28.8528 90.232 28.5561 90.9959 28.3558C91.7673 28.1556 92.5757 28.0147 93.4212 27.9331C94.4151 27.8292 95.2161 27.7328 95.8243 27.6438C96.4325 27.5474 96.8738 27.4065 97.1482 27.2211C97.4226 27.0356 97.5598 26.7612 97.5598 26.3978V26.331C97.5598 25.6264 97.3373 25.0813 96.8923 24.6956C96.4547 24.3099 95.8317 24.1171 95.0233 24.1171C94.1703 24.1171 93.4917 24.3062 92.9873 24.6845C92.483 25.0553 92.1492 25.5226 91.9861 26.0863L87.6027 25.7303C87.8252 24.6919 88.2628 23.7945 88.9155 23.0379C89.5681 22.274 90.41 21.6881 91.4409 21.2801C92.4793 20.8648 93.6808 20.6571 95.0455 20.6571C95.9949 20.6571 96.9034 20.7684 97.7712 20.9909C98.6464 21.2134 99.4215 21.5583 100.096 22.0255C100.779 22.4928 101.316 23.0936 101.71 23.8278C102.103 24.5547 102.299 25.4262 102.299 26.4423V37.9681H97.8046V35.5984H97.6711C97.3967 36.1324 97.0295 36.6034 96.5697 37.0113C96.1098 37.4119 95.5573 37.7271 94.912 37.957C94.2667 38.1795 93.5213 38.2908 92.6758 38.2908ZM94.0331 35.0199C94.7303 35.0199 95.3459 34.8827 95.8799 34.6083C96.4139 34.3264 96.833 33.9482 97.1371 33.4735C97.4412 32.9988 97.5932 32.4611 97.5932 31.8603V30.0469C97.4449 30.1433 97.2409 30.2323 96.9813 30.3139C96.7291 30.3881 96.4436 30.4585 96.1247 30.5253C95.8057 30.5846 95.4868 30.6402 95.1679 30.6922C94.849 30.7367 94.5597 30.7775 94.3001 30.8145C93.7439 30.8961 93.258 31.0259 92.8427 31.2039C92.4274 31.3819 92.1047 31.623 91.8748 31.9271C91.6449 32.2237 91.5299 32.5946 91.5299 33.0396C91.5299 33.6849 91.7635 34.1781 92.2308 34.5193C92.7055 34.853 93.3063 35.0199 94.0331 35.0199Z" fill="black"/>
<path d="M120.194 25.7525L115.855 26.0195C115.781 25.6487 115.622 25.3149 115.377 25.0182C115.132 24.7142 114.81 24.4731 114.409 24.2951C114.016 24.1097 113.545 24.017 112.996 24.017C112.262 24.017 111.643 24.1727 111.138 24.4842C110.634 24.7883 110.382 25.1962 110.382 25.708C110.382 26.1159 110.545 26.4608 110.871 26.7427C111.198 27.0245 111.758 27.2507 112.551 27.4213L115.644 28.0443C117.305 28.3855 118.544 28.9344 119.36 29.6909C120.176 30.4474 120.584 31.4413 120.584 32.6725C120.584 33.7924 120.254 34.7752 119.594 35.6207C118.941 36.4662 118.043 37.1263 116.901 37.601C115.766 38.0682 114.457 38.3019 112.974 38.3019C110.712 38.3019 108.91 37.8309 107.567 36.889C106.232 35.9396 105.45 34.6491 105.22 33.0174L109.881 32.7726C110.022 33.4624 110.363 33.989 110.905 34.3524C111.446 34.7084 112.14 34.8864 112.985 34.8864C113.816 34.8864 114.483 34.7269 114.988 34.408C115.499 34.0817 115.759 33.6626 115.766 33.1509C115.759 32.7207 115.577 32.3684 115.221 32.0939C114.865 31.8121 114.316 31.597 113.575 31.4487L110.615 30.859C108.947 30.5253 107.704 29.9468 106.888 29.1235C106.08 28.3002 105.676 27.2507 105.676 25.975C105.676 24.8773 105.972 23.9317 106.566 23.1381C107.167 22.3445 108.008 21.7326 109.091 21.3024C110.182 20.8722 111.457 20.6571 112.918 20.6571C115.077 20.6571 116.775 21.1133 118.014 22.0255C119.26 22.9378 119.987 24.1801 120.194 25.7525Z" fill="black"/>
<path d="M124.002 37.968V15.1834H132.991C134.712 15.1834 136.18 15.4912 137.397 16.1068C138.621 16.715 139.551 17.579 140.189 18.699C140.835 19.8115 141.157 21.1206 141.157 22.6262C141.157 24.1393 140.831 25.4409 140.178 26.5312C139.525 27.6141 138.58 28.4448 137.341 29.0233C136.11 29.6018 134.619 29.8911 132.869 29.8911H126.85V26.0194H132.09C133.01 26.0194 133.774 25.8934 134.382 25.6412C134.99 25.389 135.442 25.0107 135.739 24.5064C136.043 24.0021 136.195 23.3753 136.195 22.6262C136.195 21.8697 136.043 21.2318 135.739 20.7127C135.442 20.1935 134.986 19.8004 134.371 19.5334C133.763 19.259 132.995 19.1217 132.068 19.1217H128.819V37.968H124.002ZM136.307 27.5992L141.969 37.968H136.651L131.111 27.5992H136.307Z" fill="black"/>
<path d="M149.345 38.2907C148.255 38.2907 147.284 38.1015 146.431 37.7233C145.578 37.3376 144.903 36.7702 144.406 36.0211C143.916 35.2646 143.672 34.3226 143.672 33.1953C143.672 32.2459 143.846 31.4486 144.194 30.8033C144.543 30.1581 145.018 29.6389 145.618 29.2458C146.219 28.8527 146.902 28.556 147.666 28.3558C148.437 28.1555 149.245 28.0146 150.091 27.933C151.085 27.8292 151.886 27.7327 152.494 27.6437C153.102 27.5473 153.543 27.4064 153.818 27.221C154.092 27.0356 154.229 26.7611 154.229 26.3977V26.331C154.229 25.6263 154.007 25.0812 153.562 24.6955C153.124 24.3099 152.501 24.117 151.693 24.117C150.84 24.117 150.161 24.3061 149.657 24.6844C149.153 25.0552 148.819 25.5225 148.656 26.0862L144.272 25.7302C144.495 24.6918 144.932 23.7944 145.585 23.0379C146.238 22.2739 147.08 21.688 148.111 21.2801C149.149 20.8647 150.35 20.657 151.715 20.657C152.664 20.657 153.573 20.7683 154.441 20.9908C155.316 21.2133 156.091 21.5582 156.766 22.0255C157.448 22.4927 157.986 23.0935 158.379 23.8278C158.772 24.5546 158.969 25.4261 158.969 26.4422V37.968H154.474V35.5983H154.341C154.066 36.1324 153.699 36.6033 153.239 37.0113C152.779 37.4118 152.227 37.727 151.582 37.9569C150.936 38.1794 150.191 38.2907 149.345 38.2907ZM150.703 35.0198C151.4 35.0198 152.016 34.8826 152.55 34.6082C153.084 34.3264 153.503 33.9481 153.807 33.4734C154.111 32.9987 154.263 32.461 154.263 31.8602V30.0468C154.114 30.1432 153.911 30.2322 153.651 30.3138C153.399 30.388 153.113 30.4584 152.794 30.5252C152.475 30.5845 152.156 30.6402 151.838 30.6921C151.519 30.7366 151.229 30.7774 150.97 30.8145C150.413 30.896 149.928 31.0258 149.512 31.2038C149.097 31.3818 148.774 31.6229 148.544 31.927C148.314 32.2237 148.2 32.5945 148.2 33.0395C148.2 33.6848 148.433 34.178 148.9 34.5192C149.375 34.8529 149.976 35.0198 150.703 35.0198Z" fill="black"/>
<path d="M162.646 37.968V20.8795H167.385V37.968H162.646ZM165.027 18.6767C164.322 18.6767 163.717 18.4431 163.213 17.9758C162.716 17.5012 162.468 16.9338 162.468 16.2737C162.468 15.621 162.716 15.061 163.213 14.5937C163.717 14.1191 164.322 13.8817 165.027 13.8817C165.731 13.8817 166.332 14.1191 166.829 14.5937C167.333 15.061 167.585 15.621 167.585 16.2737C167.585 16.9338 167.333 17.5012 166.829 17.9758C166.332 18.4431 165.731 18.6767 165.027 18.6767Z" fill="black"/>
<path d="M175.921 15.1834V37.968H171.182V15.1834H175.921Z" fill="black"/>
<path d="M24.6357 0.998861L26.4223 0.882263L26.5249 2.45193C25.9241 2.47313 25.3283 2.51508 24.7387 2.57755L24.6357 0.998861Z" fill="#343434"/>
<path d="M4.97486 41.8813L5.97124 43.3689L7.13496 42.5895C6.78088 42.11 6.44349 41.617 6.12347 41.1121L4.97486 41.8813Z" fill="#343434"/>
<path d="M11.7671 49.0269L10.3758 47.8998L11.1809 46.9063C11.6369 47.2908 12.1067 47.6593 12.59 48.0114L11.7671 49.0269Z" fill="#343434"/>
<path d="M26.6435 54.39L24.8574 54.2686L24.9627 52.7172C25.5529 52.7745 26.1487 52.8115 26.7498 52.8273L26.6435 54.39Z" fill="#343434"/>
<path d="M17.0338 52.3993L18.7047 53.0427L19.2997 51.4974C18.7871 51.3226 18.2817 51.132 17.7844 50.9261L17.6265 50.86L17.0338 52.3993Z" fill="#343434"/>
<path d="M32.3807 53.851L34.1331 53.4845L33.8254 52.0129C33.2506 52.1636 32.6678 52.2948 32.0783 52.4051L32.3807 53.851Z" fill="#343434"/>
<path d="M39.9212 51.4408L41.4857 50.5698L40.6569 49.0813C40.1499 49.3946 39.6314 49.6904 39.1014 49.9681L39.9212 51.4408Z" fill="#343434"/>
<path d="M47.5998 45.2575L46.3623 46.5516L45.2272 45.4656L45.238 45.4548C45.6564 45.0365 46.0599 44.6032 46.4484 44.1562L47.5998 45.2575Z" fill="#343434"/>
<path d="M54.1649 30.8709L53.8972 32.641L52.1721 32.3805C52.2835 31.7973 52.3746 31.2071 52.4448 30.6108L54.1649 30.8709Z" fill="#343434"/>
<path d="M51.3929 40.2851L52.1712 38.6725L50.4619 37.8476C50.2192 38.3947 49.9574 38.9314 49.6778 39.4571L51.3929 40.2851Z" fill="#343434"/>
<path d="M54.0983 25.1091L53.8766 23.3322L52.2855 23.5306C52.3818 24.1163 52.4576 24.7086 52.5124 25.3067L54.0983 25.1091Z" fill="#343434"/>
<path d="M51.0738 15.8591L51.8099 17.4912L50.7044 17.9899C50.475 17.4369 50.2267 16.8938 49.9601 16.3616L51.0738 15.8591Z" fill="#343434"/>
<path d="M40.0225 4.41583L41.5635 5.32718L40.9456 6.37228C40.4433 6.05225 39.9284 5.74937 39.4023 5.46453L40.0225 4.41583Z" fill="#343434"/>
<path d="M47.7784 10.6776L46.5747 9.35217L45.6257 10.2137C46.0382 10.6449 46.4358 11.0905 46.8174 11.5502L47.7784 10.6776Z" fill="#343434"/>
<path d="M1.58902 20.5665L2.14968 18.8663L3.61583 19.35C3.42007 19.9116 3.24371 20.4822 3.08742 21.0611L1.58902 20.5665Z" fill="#343434"/>
<path d="M6.13046 11.6934L5.09259 13.1521L6.24435 13.9714C6.56866 13.4694 6.91034 12.9798 7.26892 12.503L6.13046 11.6934Z" fill="#343434"/>
<path d="M0.683075 26.6402L0.673828 28.4307L2.23222 28.4388C2.22388 28.1722 2.21982 27.9047 2.21982 27.6364C2.21982 27.3055 2.22636 26.9762 2.23899 26.6483L0.683075 26.6402Z" fill="#343434"/>
<path d="M34.564 1.88609L32.8228 1.47044L32.4709 2.94381C33.0584 3.06379 33.6389 3.20407 34.2113 3.36397L34.564 1.88609Z" fill="#343434"/>
<path d="M18.665 2.43457L17.0016 3.09649L17.5399 4.44898L17.7844 4.34614C18.253 4.15196 18.7286 3.97176 19.2106 3.80555L18.665 2.43457Z" fill="#343434"/>
<path d="M10.0803 7.50059L11.4743 6.37701L12.3372 7.44736C11.8589 7.80528 11.3934 8.17965 10.9421 8.56981L10.0803 7.50059Z" fill="#343434"/>
<path d="M2.16479 36.4973L1.64517 34.7842L3.1217 34.3363C3.28092 34.9143 3.46022 35.484 3.65868 36.0445L2.16479 36.4973Z" fill="#343434"/>
<path d="M26.6636 4.57505L27.0817 10.9735C26.4782 10.9854 25.8824 11.0294 25.296 11.1041L24.8776 4.70112C25.4665 4.63684 26.0619 4.59422 26.6636 4.57505Z" fill="#343434"/>
<path d="M8.90264 41.4057L14.2364 37.8336C13.8715 37.3622 13.5314 36.8706 13.2177 36.3606L7.88912 39.9294C8.20825 40.4348 8.54631 40.9274 8.90264 41.4057Z" fill="#343434"/>
<path d="M12.5197 45.2543L16.555 40.2747C17.0072 40.6635 17.4806 41.0288 17.9734 41.368L13.9296 46.3583C13.4452 46.0083 12.975 45.64 12.5197 45.2543Z" fill="#343434"/>
<path d="M25.1072 50.5953L25.5423 44.1975C26.1298 44.2638 26.7261 44.299 27.3298 44.3021L26.8943 50.7035C26.2924 50.69 25.6965 50.6539 25.1072 50.5953Z" fill="#343434"/>
<path d="M20.0635 49.5136L22.3705 43.5225C21.921 43.3797 21.4799 43.2183 21.0475 43.0394C20.9293 42.9905 20.8123 42.9404 20.6959 42.889L18.3899 48.8774L18.594 48.9631C19.0757 49.1627 19.5658 49.3463 20.0635 49.5136Z" fill="#343434"/>
<path d="M33.39 49.9306L32.0747 43.6423C31.505 43.8078 30.9229 43.944 30.3302 44.0484L31.643 50.3244C32.2334 50.2152 32.8164 50.084 33.39 49.9306Z" fill="#343434"/>
<path d="M39.6224 47.2234L36.4988 41.6134C35.9998 41.9382 35.4819 42.2368 34.9474 42.5076L38.0681 48.1122C38.5985 47.8357 39.1168 47.5391 39.6224 47.2234Z" fill="#343434"/>
<path d="M43.6902 43.9957L39.0581 39.5656L39.2043 39.4211C39.578 39.0474 39.9336 38.6558 40.2708 38.2479L44.9101 42.6851C44.5342 43.1217 44.142 43.5441 43.7347 43.9515L43.6902 43.9957Z" fill="#343434"/>
<path d="M50.0693 32.0625L43.7236 31.1036C43.8465 30.5242 43.939 29.9342 43.9999 29.3346L50.3413 30.2931C50.2729 30.8903 50.182 31.4802 50.0693 32.0625Z" fill="#343434"/>
<path d="M48.5488 36.9242L42.7692 34.1349C42.5351 34.687 42.2723 35.224 41.9828 35.7434L47.7639 38.5336C48.0458 38.0088 48.3075 37.4723 48.5488 36.9242Z" fill="#343434"/>
<path d="M50.1746 23.794L43.8073 24.5881C43.9149 25.1698 43.9922 25.7622 44.0375 26.3637L50.4015 25.5701C50.348 24.9711 50.2725 24.3786 50.1746 23.794Z" fill="#343434"/>
<path d="M48.768 18.8633L42.9198 21.5009C42.699 20.9434 42.4489 20.4005 42.1718 19.8744L48.0228 17.235C48.2831 17.7497 48.5246 18.2752 48.7463 18.8106L48.768 18.8633Z" fill="#343434"/>
<path d="M39.8639 8.20175L36.5988 13.7245C36.1017 13.3961 35.5861 13.0937 35.0539 12.8192L38.3209 7.29378C38.8477 7.57704 39.3624 7.8797 39.8639 8.20175Z" fill="#343434"/>
<path d="M44.0511 11.6435L39.3049 15.9529C39.7232 16.3787 40.119 16.8266 40.49 17.2952L45.2419 12.9807C44.8621 12.5197 44.4649 12.0736 44.0511 11.6435Z" fill="#343434"/>
<path d="M5.63272 20.0153L11.7229 22.0248C11.5228 22.5841 11.3519 23.1569 11.2116 23.7415L5.10815 21.7278C5.26151 21.1477 5.43674 20.5764 5.63272 20.0153Z" fill="#343434"/>
<path d="M7.97708 15.2044L13.2089 18.926C13.5219 18.4159 13.8615 17.924 14.226 17.4522L9.0012 13.7355C8.64148 14.2112 8.29981 14.701 7.97708 15.2044Z" fill="#343434"/>
<path d="M4.3603 28.4496L10.7743 28.483C10.7601 28.2026 10.7529 27.9203 10.7529 27.6364C10.7529 27.3197 10.7619 27.0049 10.7795 26.6925L4.36639 26.6591C4.35286 26.9832 4.34609 27.3089 4.34609 27.6364C4.34609 27.9088 4.35083 28.1796 4.3603 28.4496Z" fill="#343434"/>
<path d="M31.977 5.01212L30.4872 11.2525C31.0785 11.3627 31.659 11.5044 32.2269 11.6753L33.7174 5.4316C33.1462 5.2699 32.5659 5.12985 31.977 5.01212Z" fill="#343434"/>
<path d="M18.3249 6.42257L20.6968 12.3815C21.2403 12.1415 21.7992 11.9304 22.3716 11.7486L19.9968 5.78117C19.522 5.94219 19.0541 6.11833 18.594 6.30913C18.504 6.34612 18.4143 6.38423 18.3249 6.42257Z" fill="#343434"/>
<path d="M13.6716 9.10319L17.6973 14.0982C17.212 14.4471 16.7463 14.8219 16.302 15.2197L12.2772 10.2263C12.7271 9.83457 13.1922 9.45952 13.6716 9.10319Z" fill="#343434"/>
<path d="M5.15528 33.7197L11.2937 31.8584C11.4455 32.4396 11.6284 33.0089 11.8397 33.5637L5.69294 35.4274C5.49244 34.8681 5.31293 34.2984 5.15528 33.7197Z" fill="#343434"/>
<path d="M27.1828 12.517L27.307 14.4193L25.5204 14.5361L25.397 12.6489C25.9823 12.5709 26.5781 12.5262 27.1828 12.517Z" fill="#343434"/>
<path d="M15.5232 36.9716L17.2426 35.8198L16.2463 34.3323L14.5011 35.5009C14.8128 36.0118 15.1545 36.5027 15.5232 36.9716Z" fill="#343434"/>
<path d="M17.5284 39.0737L18.9172 37.36L20.308 38.4871L18.9488 40.1646C18.4537 39.829 17.9794 39.4646 17.5284 39.0737Z" fill="#343434"/>
<path d="M25.6471 42.6544L25.778 40.7336L27.5641 40.8554L27.4349 42.7571H27.4196C26.8197 42.7571 26.2283 42.7223 25.6471 42.6544Z" fill="#343434"/>
<path d="M22.9262 42.0796L23.5793 40.3829L21.9086 39.7393L21.2509 41.4474C21.3784 41.5043 21.5062 41.5595 21.6352 41.613C22.0561 41.7873 22.4868 41.9434 22.9262 42.0796Z" fill="#343434"/>
<path d="M31.7576 42.1269L31.3559 40.2059L29.6033 40.5724L30.014 42.5356C30.6081 42.4332 31.1899 42.2963 31.7576 42.1269Z" fill="#343434"/>
<path d="M35.7458 40.2609L34.8863 38.7172L33.3221 39.5882L34.1964 41.1585C34.7318 40.8895 35.249 40.5897 35.7458 40.2609Z" fill="#343434"/>
<path d="M37.9404 38.4964L36.5586 37.1748L37.7961 35.8812L39.1511 37.1768C38.8243 37.578 38.4769 37.9623 38.1111 38.3282C38.0548 38.3845 37.9977 38.4409 37.9404 38.4964Z" fill="#343434"/>
<path d="M42.1939 30.8722L40.4837 30.6138L40.7514 28.8434L42.4701 29.1034C42.4122 29.7042 42.3197 30.2944 42.1939 30.8722Z" fill="#343434"/>
<path d="M41.3781 33.4635L39.9537 32.7761L39.1754 34.3886L40.5901 35.0715C40.8836 34.5537 41.147 34.0167 41.3781 33.4635Z" fill="#343434"/>
<path d="M42.2714 24.7798L40.4149 25.0112L40.6366 26.7877L42.5024 26.5552C42.4598 25.9528 42.3822 25.3603 42.2714 24.7798Z" fill="#343434"/>
<path d="M41.511 22.1362L39.4438 23.0685L38.7077 21.4366L40.7611 20.5106C40.9941 20.9454 41.2063 21.3931 41.3964 21.8518C41.4356 21.9461 41.4738 22.0408 41.511 22.1362Z" fill="#343434"/>
<path d="M35.8117 15.0551L34.659 17.0048L33.118 16.0934L34.2673 14.1496C34.8011 14.4211 35.3166 14.7238 35.8117 15.0551Z" fill="#343434"/>
<path d="M38.1594 16.9928L36.5309 18.4716L37.7345 19.797L39.3434 18.3363C38.9754 17.8654 38.58 17.4168 38.1594 16.9928Z" fill="#343434"/>
<path d="M13.1883 22.5083L15.0327 23.1168L14.4718 24.817L12.6834 24.2271C12.8185 23.64 12.9872 23.0667 13.1883 22.5083Z" fill="#343434"/>
<path d="M14.4698 19.823L16.1468 21.016L17.1847 19.5571L15.4858 18.3485C15.1191 18.8187 14.7794 19.311 14.4698 19.823Z" fill="#343434"/>
<path d="M12.3221 28.4913L14.2397 28.5012L14.249 26.7108L12.3268 26.7009C12.3079 27.0101 12.2984 27.322 12.2984 27.6364C12.2984 27.9232 12.3063 28.2083 12.3221 28.4913Z" fill="#343434"/>
<path d="M30.1281 12.7567L29.6724 14.6656L31.4137 15.081L31.8679 13.1787C31.3016 13.005 30.7208 12.8634 30.1281 12.7567Z" fill="#343434"/>
<path d="M21.2681 13.8172L22.0177 15.701L23.681 15.0391L22.9442 13.187C22.4986 13.3248 22.0617 13.4825 21.6352 13.6593C21.5119 13.7103 21.3896 13.7628 21.2681 13.8172Z" fill="#343434"/>
<path d="M18.6684 15.3029L19.9873 16.9394L18.5933 18.0629L17.2731 16.4249C17.7156 16.0242 18.1813 15.6496 18.6684 15.3029Z" fill="#343434"/>
<path d="M12.7722 31.4099L14.6272 30.8474L15.1468 32.561L13.3203 33.1149C13.1053 32.5616 12.922 31.9926 12.7722 31.4099Z" fill="#343434"/>
<path fill-rule="evenodd" clip-rule="evenodd" d="M38.9144 16.1412C35.9726 13.1994 31.9084 11.3796 27.4195 11.3796C22.9303 11.3796 18.8663 13.1994 15.9246 16.1412C12.9825 19.083 11.163 23.1472 11.163 27.6361C11.163 32.1252 12.9825 36.1892 15.9246 39.131C18.8663 42.0728 22.9303 43.8926 27.4195 43.8926C31.9084 43.8926 35.9726 42.0728 38.9144 39.131C41.8561 36.1892 43.6759 32.1252 43.6759 27.6361C43.6759 23.1472 41.8561 19.083 38.9144 16.1412ZM27.4195 12.1054C31.7083 12.1054 35.591 13.8438 38.4015 16.6541C41.2118 19.4646 42.9502 23.3473 42.9502 27.6361C42.9502 31.925 41.2118 35.8076 38.4015 38.6182C35.591 41.4285 31.7083 43.1668 27.4195 43.1668C23.1306 43.1668 19.2479 41.4285 16.4374 38.6182C13.6271 35.8076 11.8887 31.925 11.8887 27.6361C11.8887 23.3473 13.6271 19.4646 16.4374 16.6541C19.2479 13.8438 23.1306 12.1054 27.4195 12.1054Z" fill="#343434"/>
<path fill-rule="evenodd" clip-rule="evenodd" d="M27.4195 2.94878C34.2365 2.94878 40.4085 5.71194 44.8759 10.1796C49.3436 14.6471 52.1068 20.8189 52.1068 27.6361C52.1068 34.4531 49.3436 40.6252 44.8759 45.0926C40.4085 49.5603 34.2365 52.3235 27.4195 52.3235C20.6022 52.3235 14.4304 49.5603 9.96296 45.0926C5.49526 40.6252 2.7321 34.4531 2.7321 27.6361C2.7321 20.8189 5.49526 14.6471 9.96296 10.1796C14.4304 5.71194 20.6022 2.94878 27.4195 2.94878ZM7.75268 40.6594L7.72989 40.6255C8.60893 41.9553 9.61908 43.1909 10.7419 44.3137C15.01 48.5818 20.9065 51.2216 27.4195 51.2216C33.9325 51.2216 39.8291 48.5818 44.097 44.3137C48.3651 40.0458 51.0049 34.1491 51.0049 27.6361C51.0049 21.1231 48.3651 15.2267 44.097 10.9586C39.8291 6.6905 33.9325 4.05071 27.4195 4.05071C20.9065 4.05071 15.01 6.6905 10.7419 10.9586C6.47383 15.2267 3.83403 21.1231 3.83403 27.6361C3.83403 32.4076 5.25083 36.8482 7.68671 40.56L7.67645 40.544L7.75268 40.6594Z" fill="#343434"/>
<path fill-rule="evenodd" clip-rule="evenodd" d="M32.3135 26.8891L31.6611 27.5544C31.3532 25.9297 30.747 24.4191 29.9805 23.1135C29.5876 22.4446 29.2139 21.9119 28.7392 21.2951C28.1956 20.5887 27.8858 19.9448 27.3057 19.4385C27.7218 22.3012 28.2301 22.5377 26.285 24.5632C25.1219 25.7741 23.6068 26.9567 22.875 27.9148C21.8216 29.2939 21.6001 31.5665 22.5764 33.2469C25.7022 38.6266 35.3158 35.186 32.3135 26.8891Z" fill="#F86822"/>
</svg>
