<svg width="24" height="24" viewBox="0 0 24 24" fill="none" xmlns="http://www.w3.org/2000/svg">
<path d="M12.0165 3.92499C9.25816 3.92499 7.0165 6.16665 7.0165 8.92499V11.3333C7.0165 11.8417 6.79983 12.6167 6.5415 13.05L5.58316 14.6417C4.9915 15.625 5.39983 16.7167 6.48316 17.0833C10.0748 18.2833 13.9498 18.2833 17.5415 17.0833C18.5498 16.75 18.9915 15.5583 18.4415 14.6417L17.4832 13.05C17.2332 12.6167 17.0165 11.8417 17.0165 11.3333" stroke="#566577" stroke-width="1.5" stroke-miterlimit="10" stroke-linecap="round"/>
<path d="M13.5584 4.16667C13.3001 4.09167 13.0334 4.03334 12.7584 4C11.9584 3.9 11.1918 3.95834 10.4751 4.16667C10.7168 3.55 11.3168 3.11667 12.0168 3.11667C12.7168 3.11667 13.3168 3.55 13.5584 4.16667Z" stroke="#566577" stroke-width="1.5" stroke-miterlimit="10" stroke-linecap="round" stroke-linejoin="round"/>
<path d="M14.5166 17.5833C14.5166 18.9583 13.3916 20.0833 12.0166 20.0833C11.3333 20.0833 10.6999 19.8 10.2499 19.35C9.79993 18.9 9.5166 18.2667 9.5166 17.5833" stroke="#566577" stroke-width="1.5" stroke-miterlimit="10"/>
<circle cx="16.5" cy="7" r="2.5" fill="#F86822"/>
</svg>
